<svg xmlns="http://www.w3.org/2000/svg" width="37.77" height="37.789" viewBox="0 0 37.77 37.789">
  <g id="Group_25" data-name="Group 25" transform="translate(-525.191 -665.189)">
    <g id="instagram" transform="translate(525.191 665.189)">
      <path id="Path_4" data-name="Path 4" d="M37.782,11.11A13.808,13.808,0,0,0,36.9,6.528,9.68,9.68,0,0,0,31.376,1,13.844,13.844,0,0,0,26.791.119C24.768.023,24.125,0,19,0s-5.772.023-7.788.111A13.812,13.812,0,0,0,6.625.989,9.22,9.22,0,0,0,3.274,3.171,9.3,9.3,0,0,0,1.1,6.516,13.845,13.845,0,0,0,.218,11.1C.12,13.125.1,13.767.1,18.9s.023,5.772.111,7.788a13.807,13.807,0,0,0,.876,4.587A9.679,9.679,0,0,0,6.614,36.8a13.845,13.845,0,0,0,4.582.879c2.015.089,2.657.111,7.788.111s5.772-.022,7.788-.111a13.8,13.8,0,0,0,4.582-.879,9.665,9.665,0,0,0,5.527-5.527,13.855,13.855,0,0,0,.879-4.582c.089-2.015.111-2.657.111-7.788s-.007-5.772-.1-7.788Zm-3.4,15.428a10.358,10.358,0,0,1-.649,3.506,6.268,6.268,0,0,1-3.588,3.588,10.394,10.394,0,0,1-3.506.649c-1.993.089-2.591.111-7.636.111s-5.647-.022-7.636-.111a10.352,10.352,0,0,1-3.506-.649,6.24,6.24,0,0,1-3.575-3.58,10.4,10.4,0,0,1-.649-3.507c-.089-1.993-.111-2.591-.111-7.636s.022-5.647.111-7.636a10.352,10.352,0,0,1,.649-3.506A5.745,5.745,0,0,1,5.7,5.6,5.866,5.866,0,0,1,7.87,4.191a10.4,10.4,0,0,1,3.506-.649c1.993-.089,2.591-.111,7.636-.111s5.647.023,7.636.111a10.358,10.358,0,0,1,3.506.649A5.81,5.81,0,0,1,32.318,5.6a5.873,5.873,0,0,1,1.41,2.17,10.4,10.4,0,0,1,.649,3.506c.089,1.993.111,2.591.111,7.636s-.023,5.633-.111,7.625Zm0,0" transform="translate(-0.1)" fill="#fff"/>
      <path id="Path_5" data-name="Path 5" d="M36.559,26.753a9.708,9.708,0,1,0,9.705,9.707,9.708,9.708,0,0,0-9.705-9.707Zm0,16a6.3,6.3,0,1,1,6.3-6.3,6.3,6.3,0,0,1-6.3,6.3Zm0,0" transform="translate(-17.661 -17.562)" fill="#fff"/>
      <path id="Path_6" data-name="Path 6" d="M82.418,21.305a2.266,2.266,0,1,1-2.268-2.266,2.266,2.266,0,0,1,2.268,2.266Zm0,0" transform="translate(-51.165 -12.499)" fill="#fff"/>
    </g>
  </g>
</svg>
