<svg xmlns="http://www.w3.org/2000/svg" width="39.469" height="32.069" viewBox="0 0 39.469 32.069">
  <g id="Group_24" data-name="Group 24" transform="translate(-357.364 -668.359)">
    <g id="twitter" transform="translate(357.364 668.359)">
      <g id="Group_4" data-name="Group 4" transform="translate(0)">
        <path id="Path_1" data-name="Path 1" d="M39.469,14.109a16.873,16.873,0,0,1-4.663,1.278,8.046,8.046,0,0,0,3.559-4.472,16.17,16.17,0,0,1-5.129,1.958,8.091,8.091,0,0,0-14,5.533,8.332,8.332,0,0,0,.188,1.845A22.9,22.9,0,0,1,2.748,11.788,8.094,8.094,0,0,0,5.236,22.6a7.991,7.991,0,0,1-3.656-1v.089a8.129,8.129,0,0,0,6.483,7.951,8.072,8.072,0,0,1-2.121.266,7.154,7.154,0,0,1-1.532-.138,8.169,8.169,0,0,0,7.564,5.636A16.258,16.258,0,0,1,1.937,38.86,15.155,15.155,0,0,1,0,38.75a22.78,22.78,0,0,0,12.413,3.631c14.889,0,23.03-12.334,23.03-23.025,0-.358-.012-.7-.03-1.046a16.146,16.146,0,0,0,4.056-4.2Z" transform="translate(0 -10.312)" fill="#fff"/>
      </g>
    </g>
  </g>
</svg>
